<?xml version="1.0" encoding="UTF-8" standalone="no"?>
<svg
   xmlns:dc="http://purl.org/dc/elements/1.1/"
   xmlns:cc="http://creativecommons.org/ns#"
   xmlns:rdf="http://www.w3.org/1999/02/22-rdf-syntax-ns#"
   xmlns:svg="http://www.w3.org/2000/svg"
   xmlns="http://www.w3.org/2000/svg"
   id="svg103"
   version="1.1"
   preserveAspectRatio="xMidYMid meet"
   viewBox="0 0 1280 1280"
   class="svg">
  <metadata
     id="metadata109">
    <rdf:RDF>
      <cc:Work
         rdf:about="">
        <dc:format>image/svg+xml</dc:format>
        <dc:type
           rdf:resource="http://purl.org/dc/dcmitype/StillImage" />
        <dc:title></dc:title>
      </cc:Work>
    </rdf:RDF>
  </metadata>
  <defs
     id="defs107" />
  <g
     id="g101"
     stroke="none"
     transform="translate(0.000000,1280.000000) scale(0.100000,-0.100000)">
    <path
       id="path93"
       d="M8500 12793 c-203 -19 -252 -24 -264 -29 -21 -8 -67 -401 -84 -718             l-7 -129 -110 -27 c-60 -15 -144 -41 -185 -58 -105 -43 -337 -154 -397 -191             -28 -17 -53 -31 -55 -31 -3 0 -151 120 -329 266 -178 146 -330 268 -336 271             -24 10 -229 -164 -382 -323 -147 -152 -315 -362 -303 -377 43 -57 207 -259             347 -427 94 -113 175 -211 179 -218 4 -8 -9 -38 -34 -78 -67 -106 -145 -271             -180 -379 -18 -55 -43 -132 -56 -172 -13 -39 -24 -78 -24 -86 0 -11 -19 -16             -72 -21 -390 -36 -765 -79 -775 -90 -31 -30 -51 -432 -34 -649 12 -151 35             -315 46 -325 4 -5 299 -34 757 -77 l77 -7 6 -41 c4 -23 15 -62 25 -87 10 -25             34 -97 54 -161 39 -121 120 -293 187 -393 22 -33 38 -65 35 -73 -3 -7 -83             -106 -179 -220 -264 -316 -348 -423 -340 -436 34 -60 195 -249 308 -363 149             -150 382 -344 393 -328 4 6 99 86 212 179 113 93 250 207 305 254 55 48 107             92 117 99 14 11 33 4 130 -51 134 -76 299 -144 459 -187 63 -17 121 -35 127             -39 8 -5 23 -109 42 -302 30 -293 57 -524 64 -545 8 -21 310 -37 569 -31 206             5 407 24 423 39 2 3 20 180 39 394 20 214 38 404 41 422 6 38 4 37 177 88 145             43 338 128 455 201 47 30 90 52 96 49 6 -2 67 -52 136 -111 232 -200 522 -426             537 -421 27 11 138 96 200 153 129 120 483 521 483 547 0 3 -114 141 -252 307             -139 165 -263 313 -275 328 l-22 27 59 114 c79 151 156 344 189 471 l26 104             185 17 c102 9 294 27 427 39 l242 23 6 26 c13 63 26 219 31 380 9 237 -17 582             -44 599 -7 4 -197 24 -424 45 -227 21 -416 40 -420 42 -4 2 -12 30 -18 62 -27             137 -115 364 -206 533 l-65 121 38 46 c21 26 139 171 264 323 124 152 229 281             233 288 8 12 -71 113 -203 260 -146 162 -481 451 -504 434 -83 -63 -382 -305             -487 -394 -75 -62 -142 -119 -151 -126 -12 -10 -54 7 -229 96 -153 76 -247             116 -325 139 -60 18 -120 32 -132 32 -25 0 -25 -3 -49 255 -17 191 -64 608             -68 612 -8 8 -126 23 -252 32 -130 10 -372 12 -454 4z m455 -2094 c217 -36             427 -151 610 -333 179 -178 289 -374 335 -601 104 -501 -99 -998 -520 -1276             -192 -127 -378 -186 -616 -196 -222 -10 -388 24 -579 117 -239 117 -419 293             -546 534 -96 183 -134 343 -133 571 1 281 77 507 244 723 212 275 500 446 795             471 111 9 329 4 410 -10z" />
    <path
       id="path95"
       d="M8500 10521 c-365 -80 -663 -359 -777 -727 -25 -83 -27 -101 -27             -279 -1 -207 4 -238 65 -396 65 -169 235 -378 398 -488 90 -61 214 -117 317             -143 128 -32 372 -32 490 0 140 38 241 86 354 170 320 238 473 583 430 970             -27 250 -124 448 -301 617 -134 128 -274 210 -448 262 -119 35 -371 43 -501             14z m382 -256 c228 -48 440 -209 537 -407 17 -35 41 -101 52 -147 18 -73 21             -105 17 -235 -4 -132 -8 -161 -34 -236 -76 -227 -298 -429 -546 -496 -76 -21             -290 -24 -358 -5 -147 40 -267 110 -374 217 -45 44 -96 106 -115 137 -222 373             -105 862 259 1078 74 43 186 87 260 99 75 13 231 10 302 -5z" />
    <path
       id="path97"
       d="M4716 8448 c-75 -191 -162 -428 -251 -680 l-98 -278 -122 0 c-231 0             -583 -47 -788 -106 -70 -20 -129 -35 -131 -33 -1 2 -36 51 -77 109 -140 200             -570 790 -575 790 -10 0 -181 -68 -219 -88 -22 -11 -74 -36 -115 -56 -41 -19             -120 -61 -175 -94 -55 -32 -148 -87 -207 -122 -105 -62 -250 -166 -342 -245             l-46 -41 120 -259 c67 -143 171 -367 232 -498 l111 -238 -76 -77 c-196 -200             -433 -511 -513 -675 -16 -32 -32 -57 -37 -57 -4 0 -146 24 -315 54 -329 58             -773 129 -777 124 -8 -8 -103 -248 -140 -353 -51 -146 -135 -558 -170 -840             l-6 -50 508 -195 508 -195 2 -95 c4 -171 23 -381 44 -489 11 -58 27 -141 35             -183 8 -43 26 -116 39 -163 14 -47 25 -92 25 -100 0 -7 -93 -80 -207 -161             -115 -81 -313 -224 -441 -318 -208 -152 -232 -173 -227 -193 22 -88 216 -464             346 -672 74 -116 223 -330 264 -378 l30 -34 175 81 c172 81 736 339 796 365             l30 14 135 -125 c169 -158 253 -221 482 -361 138 -84 182 -116 180 -130 -1             -10 -22 -142 -47 -293 -44 -266 -116 -748 -116 -773 0 -7 15 -18 33 -26 225             -90 426 -152 715 -220 193 -46 473 -94 483 -83 18 20 261 659 355 929 l38 113             152 0 c262 0 447 26 712 102 122 34 146 38 157 27 7 -8 153 -212 325 -454 172             -242 314 -442 316 -443 3 -4 91 37 361 170 112 55 243 130 345 197 145 96 331             233 381 281 18 16 15 25 -81 241 -55 123 -159 350 -230 504 l-130 279 117 126             c160 170 305 368 405 552 25 48 50 89 54 91 4 2 95 -11 202 -29 559 -94 883             -145 894 -141 22 9 178 453 221 627 8 36 20 75 25 87 9 21 73 382 84 475 l6             47 -48 21 c-62 28 -480 186 -764 290 l-228 83 0 156 c0 179 -10 281 -41 448             -18 99 -67 314 -85 375 -4 12 44 51 188 154 217 155 695 511 703 525 7 11 -61             171 -143 334 -116 233 -266 468 -424 667 l-77 97 -133 -58 c-184 -81 -480             -217 -687 -317 l-173 -84 -134 127 c-142 134 -314 268 -429 336 -60 35 -183             116 -208 137 -4 4 11 123 33 266 112 714 131 836 128 839 -2 1 -73 29 -158 62             -180 70 -399 143 -431 143 -12 0 -47 9 -78 19 -80 28 -488 110 -546 111 -16 0             -26 -16 -49 -72z m-181 -2623 c276 -49 564 -184 772 -363 246 -212 460 -599             518 -936 22 -127 20 -347 -4 -488 -44 -255 -154 -525 -285 -698 -231 -307             -631 -548 -1020 -615 -114 -19 -334 -19 -454 0 -228 37 -486 130 -646 233             -356 230 -620 625 -702 1052 -24 127 -24 358 0 495 90 509 329 862 761 1126             114 70 293 142 430 175 193 46 439 53 630 19z" />
    <path
       id="path99"
       d="M4175 5623 c-215 -25 -337 -62 -515 -154 -350 -181 -559 -444 -665             -838 -50 -184 -58 -241 -59 -391 0 -142 16 -252 55 -371 24 -74 109 -259 119             -259 3 0 34 -42 67 -92 148 -223 355 -389 609 -488 506 -198 1037 -94 1437             280 180 168 328 436 378 682 69 343 12 664 -173 974 -199 335 -459 524 -858             623 -134 33 -292 47 -395 34z m345 -374 c312 -78 532 -261 681 -565 68 -141             83 -214 83 -409 0 -199 -15 -270 -90 -424 -55 -115 -112 -196 -195 -279 -290             -285 -627 -368 -1024 -252 -258 75 -462 253 -595 519 -127 254 -139 573 -33             816 105 236 289 424 525 535 217 102 408 119 648 59z" />
  </g>
  <path
     id="path30"
     d="m 346.26684,1273.3159 c -24.8923,-5.1306 -54.49943,-13.3212 -74.81576,-20.6972 -11.24692,-4.0832 -13.07861,-5.2878 -13.50672,-8.8823 -0.27239,-2.2871 2.83994,-25.6566 6.9163,-51.9321 4.07635,-26.2756 7.40977,-49.3616 7.40759,-51.3022 -0.003,-2.7208 -4.00614,-6.0349 -17.48807,-14.4784 -21.0993,-13.2141 -33.13127,-22.2869 -48.8895,-36.8654 -6.53852,-6.049 -12.64448,-10.9982 -13.56879,-10.9982 -0.92434,0 -23.3253,9.9122 -49.77993,22.027 -26.45464,12.1149 -49.019586,21.6739 -50.144326,21.2423 -7.561574,-2.9016 -53.95059,-79.3044 -60.857364,-100.2321 -2.739346,-8.3003 -7.121539,-4.1867 43.957537,-41.26284 20.144379,-14.62194 37.636403,-27.80264 38.871173,-29.29043 1.92331,-2.31745 1.75549,-4.73683 -1.17108,-16.88296 -6.00234,-24.91148 -8.55951,-41.34769 -9.41752,-60.53108 -1.42899,-31.94924 5.37695,-25.76276 -52.787498,-47.98296 L 0.53741377,805.97186 1.5780034,798.53358 C 3.6218321,783.924 10.608658,746.9581 13.74314,734.17027 c 3.632429,-14.81933 17.393554,-51.23253 19.36158,-51.23253 1.599458,0 96.46202,15.74102 103.57521,17.18677 4.88476,0.99281 5.31766,0.63202 10.17652,-8.48154 7.43277,-13.94129 29.23995,-42.65163 44.35522,-58.39605 l 13.17748,-13.72598 -22.98745,-49.32401 c -12.64312,-27.12822 -22.98747,-49.78716 -22.98747,-50.35321 0,-2.08416 26.22198,-20.90317 44.95173,-32.261 21.65251,-13.13019 52.64801,-28.57668 59.98918,-29.89537 4.29288,-0.77112 5.46304,-0.0178 10.30019,6.63106 3.00141,4.12555 17.46662,24.2038 32.14488,44.61833 l 26.68778,37.11732 10.95549,-3.0895 c 18.20775,-5.13465 48.71191,-9.69088 71.997,-10.75378 l 22.00718,-1.00456 9.55697,-27.00591 c 13.2761,-37.51537 26.55116,-71.99753 28.44817,-73.89453 3.79298,-3.79298 66.83244,10.93478 99.18497,23.17236 11.99792,4.5383 21.97592,8.43751 22.17334,8.66493 0.19741,0.22741 -3.18392,23.10217 -7.51407,50.83279 -4.33016,27.73062 -7.90409,52.61603 -7.94209,55.30092 -0.0626,4.42466 1.41531,5.82558 15.78863,14.96624 15.97717,10.16062 32.07347,22.68294 51.32696,39.93046 l 10.4475,9.35898 19.32878,-9.11384 c 22.57854,-10.64616 71.45177,-32.93626 76.44892,-34.86682 2.99911,-1.15865 4.83032,0.50491 14.06644,12.77852 17.1113,22.73875 28.00123,40.56558 41.02001,67.14988 6.71841,13.71891 12.21527,25.44104 12.21527,26.0492 0,0.93863 -49.41192,38.21823 -75.65809,57.08141 -14.55182,10.45843 -14.46876,10.26432 -10.72449,25.06582 5.75185,22.73763 8.50305,40.8677 9.64017,63.52758 l 1.11344,22.18784 50.99622,19.14284 c 28.04793,10.52858 51.24076,19.3874 51.53963,19.68627 1.12457,1.12457 -7.37564,46.94982 -11.28294,60.82726 -4.90161,17.40882 -16.58059,51.54728 -19.69507,57.56998 -1.89673,3.6679 -3.06924,4.2213 -7.62392,3.5986 -2.96035,-0.4048 -27.267,-4.2846 -54.01475,-8.6218 -26.74776,-4.3373 -49.1385,-7.573 -49.75721,-7.1906 -0.61871,0.3823 -4.44053,6.3952 -8.49291,13.3619 -9.91985,17.0539 -24.78695,36.8496 -38.58112,51.3712 l -11.37781,11.9779 18.32688,39.716 c 24.09495,52.216 28.02829,61.6935 26.15406,63.0192 -0.85007,0.6013 -8.62288,6.4014 -17.27293,12.889 -21.27217,15.9544 -38.38176,26.2218 -65.96326,39.5844 -12.75729,6.1806 -23.51744,11.2374 -23.91144,11.2374 -0.39402,0 -15.09187,-20.127 -32.66191,-44.7268 -19.97441,-27.9661 -32.95525,-44.7154 -34.64002,-44.6963 -1.48197,0.017 -9.64747,1.8746 -18.14557,4.1285 -22.03669,5.8447 -43.61645,8.8265 -64.24396,8.8771 l -17.89073,0.044 -10.19758,28.4668 c -5.60866,15.6568 -14.31209,39.0619 -19.34095,52.0115 -10.76782,27.7278 -6.71214,25.9279 -42.02436,18.6496 z m 121.62739,-269.0365 c 33.13401,-9.75173 65.77682,-31.33779 84.81151,-56.08425 14.04105,-18.25436 26.06374,-47.55464 30.25993,-73.74589 3.12284,-19.4918 1.32206,-47.65699 -4.13347,-64.65002 -12.05936,-37.56267 -34.20045,-68.70305 -62.00034,-87.20047 -65.07991,-43.30267 -147.87978,-35.39803 -202.62144,19.34363 -20.04726,20.04728 -33.08975,43.71722 -40.69969,73.86327 -5.28842,20.94955 -5.24836,57.64632 0.0831,76.12826 20.96706,72.68399 85.3469,119.69427 160.5002,117.19747 14.78433,-0.4911 22.98074,-1.6677 33.8002,-4.852 z"
     style="fill:#0000ff;stroke-width:1.62642944" />
  <path
     id="path32"
     d="m 833.9215,658.97324 c -4.62349,-0.32601 -9.121,-1.47144 -9.99449,-2.54539 -0.87348,-1.07395 -3.55029,-19.88401 -5.94846,-41.80015 -2.49706,-22.8198 -5.17629,-40.61196 -6.26982,-41.63642 -1.05022,-0.98389 -9.59105,-4.17792 -18.97962,-7.09783 -9.38858,-2.91993 -24.19611,-8.88494 -32.90566,-13.25558 -8.70953,-4.37066 -16.80498,-7.94664 -17.9899,-7.94664 -1.18492,0 -16.18507,11.71029 -33.33368,26.02287 -17.1486,14.31258 -31.90326,26.02288 -32.78812,26.02288 -2.31183,0 -28.55431,-22.43 -39.32286,-33.61009 -5.02753,-5.21967 -13.62753,-14.90962 -19.11112,-21.53326 l -9.97015,-12.04298 2.84683,-4.48702 c 1.56575,-2.46786 12.42697,-16.07775 24.13605,-30.24419 11.70908,-14.16644 22.18564,-27.22096 23.28126,-29.01004 1.72061,-2.80965 0.97632,-5.02568 -5.46263,-16.26429 -8.0981,-14.1345 -14.89117,-30.60832 -20.54283,-49.81829 l -3.60709,-12.26044 -38.38113,-3.6393 c -21.10962,-2.00162 -39.95297,-4.01312 -41.87411,-4.47002 -3.1063,-0.73874 -3.71318,-2.62829 -5.48215,-17.06898 -2.3433,-19.12904 -1.56113,-75.25881 1.08561,-77.90555 2.0347,-2.0347 13.41501,-3.75042 47.73704,-7.19697 41.06347,-4.1235 36.38352,-2.04105 41.47668,-18.45604 5.56463,-17.93451 12.14549,-33.4768 19.45638,-45.95094 3.1628,-5.39649 5.75055,-10.72824 5.75055,-11.84831 0,-1.12009 -11.69472,-16.26766 -25.98827,-33.66128 -14.29354,-17.39363 -26.00384,-32.10053 -26.02287,-32.68202 -0.0673,-2.05628 20.76198,-26.77738 32.82653,-38.959944 13.22036,-13.34969 31.50208,-29.10606 33.77104,-29.10606 0.77336,0 16.12827,11.955771 34.12203,26.568379 l 32.7159,26.568375 22.49505,-11.10361 c 12.37227,-6.10699 29.43125,-13.053175 37.90884,-15.435971 l 15.4138,-4.332354 1.95432,-26.176883 c 2.5223,-33.784634 5.58247,-55.799317 8.10754,-58.32495 2.3165,-2.3170323 78.00324,-2.9296951 88.43902,-0.7158889 7.37577,1.5646689 6.78702,-0.6365489 10.96516,40.9961049 5.06268,50.446618 3.9579,45.998655 11.91202,47.958436 9.92374,2.445067 30.74368,10.838706 47.0399,18.964326 7.80932,3.89388 14.99584,7.07978 15.97007,7.07978 0.97424,0 13.61404,-9.74174 28.08844,-21.648321 14.4744,-11.906576 29.0588,-23.701586 32.4099,-26.211132 l 6.0929,-4.562813 11.7978,9.375475 c 14.1507,11.245133 45.7127,42.933751 52.2783,52.487921 l 4.699,6.83785 -9.635,11.78427 c -5.2993,6.48135 -17.4202,21.34763 -26.9354,33.03617 l -17.3004,21.25191 4.8511,8.83704 c 7.8909,14.37442 15.9383,33.65172 20.2288,48.45738 2.2081,7.61942 4.2532,14.09214 4.5449,14.38381 0.2917,0.29166 19.1216,2.40662 41.8442,4.6999 22.7227,2.29329 41.9147,4.74942 42.6491,5.45809 2.9705,2.86645 4.8315,47.33055 3.0167,72.07565 -0.9836,13.41105 -2.1853,24.78065 -2.6704,25.26578 -0.7488,0.74886 -74.3891,8.24792 -82.5337,8.40472 -1.904,0.0366 -3.3262,2.23769 -4.501,6.96592 -2.9307,11.79522 -11.5343,33.91644 -18.9887,48.82336 l -7.1318,14.26175 24.6837,29.65185 c 13.576,16.30851 26.0393,31.17011 27.6962,33.02577 2.9753,3.33226 2.8544,3.56315 -9.7928,18.70394 -16.3887,19.62006 -39.7514,43.31979 -48.6062,49.3075 l -6.8957,4.66286 -11.8083,-8.89273 c -6.4945,-4.891 -21.1672,-16.69562 -32.6058,-26.2325 -11.4386,-9.53686 -21.8358,-17.33976 -23.105,-17.33976 -1.2692,0 -5.93706,2.14001 -10.37308,4.75559 -10.74836,6.33746 -30.49625,14.8922 -46.95273,20.33981 -7.3706,2.43991 -13.85238,5.16636 -14.40392,6.05878 -0.55155,0.8924 -2.81543,20.04664 -5.03087,42.56496 -2.21544,22.51831 -4.21948,41.1338 -4.45344,41.36776 -2.56882,2.56882 -61.32402,4.22981 -86.59346,2.44797 z m 72.25517,-212.37586 c 41.3208,-11.96821 74.49808,-47.55335 83.98459,-90.07983 3.29709,-14.78042 3.3508,-39.03412 0.12051,-54.46458 -8.07941,-38.59481 -42.24069,-76.4593 -80.45712,-89.17897 -15.22153,-5.06623 -49.9875,-6.36181 -67.3083,-2.50829 -41.81481,9.30291 -80.15759,48.30788 -89.71436,91.26374 -4.15378,18.67046 -2.73676,50.95393 2.94488,67.09163 14.79449,42.02115 53.2789,74.93143 95.47821,81.649 13.96247,2.22265 40.55595,0.39687 54.95159,-3.7727 z"
     style="fill:#0000ff;stroke-width:1.62642944" />
</svg>
